<svg xmlns="http://www.w3.org/2000/svg" xmlns:xlink="http://www.w3.org/1999/xlink" width="500" zoomAndPan="magnify" viewBox="0 0 375 374.999991" height="500" preserveAspectRatio="xMidYMid meet" version="1.0"><defs><clipPath id="e5caa6ee59"><path d="M 34.582031 34.582031 L 340.582031 34.582031 L 340.582031 340.582031 L 34.582031 340.582031 Z M 34.582031 34.582031 " clip-rule="nonzero"/></clipPath><clipPath id="b0ec0310d8"><path d="M 68 34.582031 L 340.582031 34.582031 L 340.582031 340.582031 L 68 340.582031 Z M 68 34.582031 " clip-rule="nonzero"/></clipPath><clipPath id="6199fd7a02"><path d="M 68 34.582031 L 340.582031 34.582031 L 340.582031 340.582031 L 68 340.582031 Z M 68 34.582031 " clip-rule="nonzero"/></clipPath><clipPath id="28b54d22e2"><path d="M 231 58 L 340.582031 58 L 340.582031 183 L 231 183 Z M 231 58 " clip-rule="nonzero"/></clipPath><clipPath id="b5f087580d"><path d="M 114 267 L 214 267 L 214 340.582031 L 114 340.582031 Z M 114 267 " clip-rule="nonzero"/></clipPath><clipPath id="bac11df317"><path d="M 335.988281 181.601562 L 340.210938 181.601562 L 340.210938 185.246094 L 335.988281 185.246094 Z M 335.988281 181.601562 " clip-rule="nonzero"/></clipPath><clipPath id="3a8391d9c6"><path d="M 340.199219 182.851562 C 338.324219 185.925781 336.523438 185.324219 336.148438 184.726562 C 335.773438 184.050781 336.148438 182.25 336.675781 181.800781 C 337.273438 181.351562 339.675781 181.949219 339.675781 181.949219 " clip-rule="nonzero"/></clipPath></defs><path fill="#0083f9" d="M 335.722656 187.582031 C 335.722656 269.398438 269.398438 335.722656 187.582031 335.722656 C 105.765625 335.722656 39.441406 269.398438 39.441406 187.582031 C 39.441406 105.765625 105.765625 39.441406 187.582031 39.441406 C 269.398438 39.441406 335.722656 105.765625 335.722656 187.582031 " fill-opacity="1" fill-rule="nonzero"/><g clip-path="url(#e5caa6ee59)"><path fill="#000000" d="M 187.582031 44.226562 C 108.53125 44.226562 44.226562 108.53125 44.226562 187.582031 C 44.226562 266.636719 108.53125 330.9375 187.582031 330.9375 C 266.636719 330.9375 330.9375 266.636719 330.9375 187.582031 C 330.9375 108.53125 266.636719 44.226562 187.582031 44.226562 Z M 187.582031 340.488281 C 103.265625 340.488281 34.675781 271.898438 34.675781 187.582031 C 34.675781 103.265625 103.265625 34.675781 187.582031 34.675781 C 271.898438 34.675781 340.488281 103.265625 340.488281 187.582031 C 340.488281 271.898438 271.898438 340.488281 187.582031 340.488281 " fill-opacity="1" fill-rule="nonzero"/></g><path fill="#39c2ff" d="M 222.828125 151.308594 C 227.847656 152.75 233.242188 151.410156 238.441406 151.9375 C 243.953125 152.484375 249.019531 155.066406 254.382812 156.375 C 259.765625 157.683594 266.203125 157.351562 269.796875 153.148438 C 271.105469 151.640625 272.214844 149.539062 274.21875 149.355469 C 275.574219 149.238281 276.800781 150.117188 277.894531 150.945312 C 282.199219 154.257812 286.519531 157.550781 290.824219 160.84375 C 293.238281 162.699219 295.824219 164.636719 298.851562 165 C 303.453125 165.582031 307.890625 162.203125 309.746094 157.949219 C 311.601562 153.710938 311.320312 148.808594 310.308594 144.289062 C 305.671875 123.230469 287.296875 108.230469 269.085938 96.675781 C 241.058594 78.910156 210.5625 65.054688 178.726562 55.652344 C 175.28125 54.640625 171.722656 53.664062 168.144531 53.960938 C 163.691406 54.34375 159.667969 56.644531 155.695312 58.679688 C 146.210938 63.515625 150.234375 75.550781 139.804688 77.671875 C 137.105469 80.964844 123.429688 77.289062 124.40625 81.429688 C 128.363281 98.082031 137.933594 113.347656 151.195312 124.15625 C 165.316406 135.679688 178.097656 128.378906 194.039062 131.09375 C 206.636719 133.246094 210.992188 147.898438 222.828125 151.308594 " fill-opacity="1" fill-rule="nonzero"/><path fill="#39c2ff" d="M 287.925781 262.148438 C 287.925781 253.160156 278.953125 235.195312 265.476562 239.683594 C 252 244.167969 253.707031 229.847656 253.707031 216.355469 C 253.707031 202.894531 258.207031 189.402344 244.730469 189.402344 C 241.652344 189.402344 245.0625 177.167969 235.363281 173.246094 C 233.625 172.535156 218.128906 178.808594 216.257812 178.03125 C 182.816406 164.039062 132.136719 141.210938 122.289062 144.488281 C 108.8125 148.976562 77.671875 145.433594 77.671875 158.910156 C 77.671875 172.382812 82.453125 174.105469 82.453125 187.582031 C 82.453125 201.058594 69.691406 215.828125 72.867188 225.347656 C 77.355469 238.820312 90.847656 247.8125 99.820312 252.296875 C 108.8125 256.800781 104.308594 279.265625 117.800781 292.742188 C 131.277344 306.203125 131.277344 315.191406 149.238281 315.191406 C 167.21875 315.191406 174.753906 304.117188 186.707031 300.671875 C 198.660156 297.230469 225.609375 282.941406 225.609375 282.941406 C 225.609375 282.941406 261.554688 297.230469 270.542969 292.742188 C 279.515625 288.242188 287.925781 284.613281 287.925781 262.148438 " fill-opacity="1" fill-rule="nonzero"/><path fill="#27a82a" d="M 187.582031 39.441406 C 171.738281 39.441406 156.492188 41.960938 142.171875 46.5625 L 144.570312 53.78125 C 144.570312 53.78125 163.691406 53.78125 168.460938 58.566406 C 173.246094 63.332031 182.796875 77.671875 182.796875 77.671875 L 178.03125 87.238281 L 154.140625 77.671875 C 154.140625 77.671875 139.804688 68.117188 135.019531 72.902344 L 120.679688 72.902344 C 120.679688 72.902344 106.34375 87.238281 106.34375 92.007812 C 106.34375 96.792969 111.128906 106.34375 111.128906 106.34375 C 111.128906 106.34375 111.128906 115.914062 106.34375 115.914062 C 101.578125 115.914062 87.238281 125.464844 87.238281 135.019531 C 87.238281 144.570312 92.007812 154.125 92.007812 154.125 L 87.238281 163.691406 L 92.007812 173.246094 L 96.792969 187.582031 L 72.902344 192.367188 L 72.902344 211.472656 L 92.007812 230.59375 L 106.34375 235.363281 L 115.914062 259.25 C 115.914062 259.25 120.679688 278.375 125.464844 283.15625 L 135.546875 293.238281 C 137.121094 294.8125 139.804688 293.6875 139.804688 291.46875 L 139.804688 286.121094 C 139.804688 284.746094 141.226562 283.871094 142.453125 284.480469 L 158.910156 292.710938 L 158.910156 302.261719 L 163.691406 311.832031 L 182.796875 321.382812 C 182.796875 321.382812 180.597656 328.023438 182.203125 333.769531 C 183.179688 334.464844 183.90625 334.992188 184.882812 335.6875 C 218.175781 336.285156 248.96875 325.871094 273.96875 307.875 L 277.828125 293.488281 C 280.824219 282.3125 274.582031 270.757812 263.605469 267.132812 L 232.878906 256.984375 C 231.785156 255.792969 232.167969 253.921875 233.625 253.226562 C 237.828125 251.238281 244.929688 246.867188 244.929688 240.148438 C 244.929688 233.855469 238.707031 227.5625 234.46875 223.988281 C 232.082031 222 231.023438 218.855469 231.636719 215.808594 L 235.363281 197.136719 L 230.59375 187.582031 L 221.023438 187.582031 L 206.703125 173.246094 L 206.703125 155.414062 C 206.703125 154.785156 206.074219 154.339844 205.480469 154.539062 L 199.535156 156.523438 C 196.027344 157.699219 192.484375 154.703125 193.113281 151.042969 C 194.105469 145.183594 196.441406 137.75 201.917969 135.019531 C 211.472656 130.234375 230.59375 139.785156 230.59375 139.785156 L 235.363281 139.785156 L 249.1875 143.246094 C 252.398438 144.058594 255.757812 142.980469 257.878906 140.449219 C 263.589844 133.613281 274.863281 120.679688 278.375 120.679688 C 292.710938 120.679688 285.0625 134.738281 286.765625 143.164062 C 287.511719 146.773438 290.65625 149.355469 294.332031 149.355469 L 302.261719 149.355469 C 302.261719 149.355469 307.046875 154.125 311.832031 158.910156 C 316.601562 163.691406 321.382812 178.03125 330.9375 178.03125 C 332.527344 178.03125 333.96875 177.597656 335.292969 176.9375 C 329.84375 100.101562 265.808594 39.441406 187.582031 39.441406 " fill-opacity="1" fill-rule="nonzero"/><g clip-path="url(#b0ec0310d8)"><path fill="#000000" d="M 207.003906 159.074219 L 206.984375 159.074219 C 207.003906 159.074219 207.003906 159.074219 207.003906 159.074219 Z M 186.488281 330.9375 C 186.871094 330.9375 187.234375 330.9375 187.597656 330.9375 C 217.234375 330.9375 245.578125 321.996094 269.796875 304.976562 L 273.207031 292.246094 C 275.542969 283.539062 270.660156 274.5 262.097656 271.667969 L 230.195312 261.121094 L 229.351562 260.210938 C 227.828125 258.539062 227.167969 256.222656 227.613281 254.003906 C 228.042969 251.769531 229.535156 249.863281 231.570312 248.90625 C 233.589844 247.945312 240.148438 244.5 240.148438 240.148438 C 240.148438 236.933594 236.867188 232.25 231.386719 227.648438 C 227.695312 224.550781 225.992188 219.652344 226.953125 214.867188 L 230.363281 197.8125 L 227.628906 192.367188 L 219.054688 192.367188 L 201.917969 175.230469 L 201.917969 160.761719 L 201.042969 161.042969 C 197.78125 162.136719 194.253906 161.457031 191.636719 159.207031 C 189.039062 156.972656 187.8125 153.609375 188.394531 150.25 C 190.082031 140.367188 194.023438 133.628906 199.785156 130.746094 C 210.082031 125.613281 226.984375 132.816406 231.6875 135.019531 L 236.519531 135.167969 L 250.34375 138.609375 C 251.785156 138.976562 253.257812 138.496094 254.203125 137.386719 C 272.164062 115.914062 276.054688 115.914062 278.375 115.914062 C 283.125 115.914062 286.734375 117.238281 289.085938 119.855469 C 292.859375 124.058594 292.230469 129.9375 291.667969 135.117188 C 291.386719 137.734375 291.089844 140.414062 291.453125 142.21875 C 291.734375 143.609375 292.925781 144.570312 294.332031 144.570312 L 304.25 144.570312 L 315.210938 155.53125 C 317.03125 157.367188 318.652344 159.953125 320.359375 162.699219 C 323.089844 167.101562 326.46875 172.5 330.175781 173.179688 C 322.90625 100.550781 261.054688 44.226562 187.582031 44.226562 C 174.933594 44.226562 162.386719 45.882812 150.214844 49.160156 C 157.234375 49.574219 167.566406 50.898438 171.839844 55.1875 C 176.902344 60.238281 186.375 74.425781 186.769531 75.019531 L 188.3125 77.324219 L 180.332031 93.296875 L 151.492188 81.660156 C 146.476562 78.332031 139.902344 75.699219 138.214844 76.410156 L 136.824219 77.800781 L 135.019531 77.671875 L 122.683594 77.671875 C 116.824219 83.730469 111.574219 90.335938 111.097656 92.339844 C 111.128906 94.492188 113.679688 100.75 115.398438 104.207031 L 115.914062 105.21875 L 115.914062 106.34375 C 115.914062 112.964844 113.398438 120.679688 106.34375 120.679688 C 103.363281 120.929688 92.007812 128.5625 92.007812 135.019531 C 92.007812 143.28125 96.246094 151.921875 96.296875 152.003906 L 97.355469 154.125 L 92.570312 163.691406 L 96.542969 171.738281 L 103.035156 191.207031 L 77.671875 196.273438 L 77.671875 209.503906 L 94.589844 226.40625 L 109.953125 231.539062 L 120.53125 258.09375 C 122.683594 266.683594 126.476562 277.398438 128.84375 279.78125 L 135.019531 285.957031 C 135.066406 283.703125 136.242188 281.667969 138.164062 280.492188 C 140.117188 279.265625 142.519531 279.167969 144.585938 280.210938 L 163.691406 289.761719 L 163.691406 301.136719 L 167.253906 308.257812 L 188.640625 318.96875 L 187.335938 322.890625 C 186.921875 324.148438 186.109375 327.726562 186.488281 330.9375 Z M 187.597656 340.488281 C 186.671875 340.488281 185.726562 340.488281 184.800781 340.472656 L 183.3125 340.441406 L 178.046875 336.664062 L 177.597656 335.058594 C 176.492188 331.054688 176.789062 326.914062 177.285156 323.96875 L 160.132812 315.390625 L 154.140625 303.390625 L 154.140625 295.65625 L 144.570312 290.890625 L 144.570312 291.46875 C 144.570312 294.433594 142.816406 297.066406 140.085938 298.191406 C 137.371094 299.316406 134.257812 298.703125 132.171875 296.617188 L 122.089844 286.535156 C 116.789062 281.238281 112.371094 264.78125 111.34375 260.742188 L 102.734375 239.203125 L 89.425781 234.765625 L 68.117188 213.457031 L 68.117188 188.445312 L 90.550781 183.957031 L 87.585938 175.082031 L 81.890625 163.691406 L 86.726562 154.023438 C 85.1875 150.367188 82.453125 142.765625 82.453125 135.019531 C 82.453125 123.113281 97.71875 111.957031 105.5 111.179688 C 105.863281 110.382812 106.179688 108.828125 106.3125 107.355469 C 104.835938 104.257812 101.578125 96.859375 101.578125 92.007812 C 101.578125 86.429688 110.117188 76.691406 117.304688 69.523438 L 118.710938 68.117188 L 133.445312 68.117188 C 140.582031 63.980469 152.152344 70.667969 156.359375 73.414062 L 175.710938 81.164062 L 177.285156 78.035156 C 173.972656 73.214844 168.164062 65.003906 165.082031 61.941406 C 163.296875 60.152344 153.710938 58.566406 144.570312 58.566406 L 141.128906 58.566406 L 136.109375 43.5 L 140.714844 42.027344 C 155.863281 37.140625 171.640625 34.675781 187.582031 34.675781 C 267.429688 34.675781 334.414062 97.007812 340.058594 176.605469 L 340.292969 179.785156 L 337.425781 181.207031 C 335.324219 182.269531 333.140625 182.796875 330.9375 182.796875 C 321.617188 182.796875 316.203125 174.105469 312.246094 167.75 C 310.839844 165.480469 309.515625 163.34375 308.453125 162.285156 L 300.292969 154.125 L 294.332031 154.125 C 288.40625 154.125 283.257812 149.917969 282.082031 144.109375 C 281.4375 140.863281 281.800781 137.417969 282.164062 134.089844 C 282.460938 131.375 282.894531 127.269531 281.984375 126.246094 C 281.667969 125.894531 280.707031 125.53125 278.953125 125.464844 C 277.179688 126.460938 271.867188 131.160156 261.535156 143.511719 C 258.226562 147.46875 253.058594 149.15625 248.027344 147.882812 L 234.78125 144.570312 L 229.46875 144.570312 L 228.457031 144.074219 C 221.390625 140.566406 209.15625 136.757812 204.054688 139.289062 C 201.207031 140.714844 198.941406 145.300781 197.8125 151.855469 L 203.972656 150 C 205.695312 149.40625 207.613281 149.71875 209.105469 150.78125 C 210.59375 151.855469 211.472656 153.578125 211.472656 155.414062 L 211.472656 171.273438 L 223.011719 182.796875 L 233.539062 182.796875 L 240.378906 196.472656 L 236.320312 216.753906 C 236.058594 218.09375 236.519531 219.484375 237.53125 220.328125 C 243.078125 225 249.699219 232.214844 249.699219 240.148438 C 249.699219 245.609375 246.601562 250.609375 240.859375 254.582031 L 265.113281 262.597656 C 278.472656 267.015625 286.089844 281.121094 282.445312 294.730469 L 278.140625 310.773438 L 276.765625 311.765625 C 250.59375 330.589844 219.816406 340.488281 187.597656 340.488281 " fill-opacity="1" fill-rule="nonzero"/></g><path fill="#27a82a" d="M 187.582031 39.441406 C 171.738281 39.441406 156.492188 41.960938 142.171875 46.5625 L 144.570312 53.78125 C 144.570312 53.78125 163.691406 53.78125 168.460938 58.566406 C 173.246094 63.332031 182.796875 77.671875 182.796875 77.671875 L 178.03125 87.238281 L 154.140625 77.671875 C 154.140625 77.671875 139.804688 68.117188 135.019531 72.902344 L 120.679688 72.902344 C 120.679688 72.902344 106.34375 87.238281 106.34375 92.007812 C 106.34375 96.792969 111.128906 106.34375 111.128906 106.34375 C 111.128906 106.34375 111.128906 115.914062 106.34375 115.914062 C 101.578125 115.914062 87.238281 125.464844 87.238281 135.019531 C 87.238281 144.570312 92.007812 154.125 92.007812 154.125 L 87.238281 163.691406 L 92.007812 173.246094 L 96.792969 187.582031 L 72.902344 192.367188 L 72.902344 211.472656 L 92.007812 230.59375 L 106.34375 235.363281 L 115.914062 259.25 C 115.914062 259.25 120.679688 278.375 125.464844 283.15625 L 135.546875 293.238281 C 137.121094 294.8125 139.804688 293.6875 139.804688 291.46875 L 139.804688 286.121094 C 139.804688 284.746094 141.226562 283.871094 142.453125 284.480469 L 158.910156 292.710938 L 158.910156 302.261719 L 163.691406 311.832031 L 182.796875 321.382812 C 182.796875 321.382812 180.597656 328.023438 182.203125 333.769531 C 183.179688 334.464844 183.90625 334.992188 184.882812 335.6875 C 218.175781 336.285156 248.96875 325.871094 273.96875 307.875 L 277.828125 293.488281 C 280.824219 282.3125 274.582031 270.757812 263.605469 267.132812 L 232.878906 256.984375 C 231.785156 255.792969 232.167969 253.921875 233.625 253.226562 C 237.828125 251.238281 244.929688 246.867188 244.929688 240.148438 C 244.929688 233.855469 238.707031 227.5625 234.46875 223.988281 C 232.082031 222 231.023438 218.855469 231.636719 215.808594 L 235.363281 197.136719 L 230.59375 187.582031 L 221.023438 187.582031 L 206.703125 173.246094 L 206.703125 155.414062 C 206.703125 154.785156 206.074219 154.339844 205.480469 154.539062 L 199.535156 156.523438 C 196.027344 157.699219 192.484375 154.703125 193.113281 151.042969 C 194.105469 145.183594 196.441406 137.75 201.917969 135.019531 C 211.472656 130.234375 230.59375 139.785156 230.59375 139.785156 L 235.363281 139.785156 L 249.1875 143.246094 C 252.398438 144.058594 255.757812 142.980469 257.878906 140.449219 C 263.589844 133.613281 274.863281 120.679688 278.375 120.679688 C 292.710938 120.679688 285.0625 134.738281 286.765625 143.164062 C 287.511719 146.773438 290.65625 149.355469 294.332031 149.355469 L 302.261719 149.355469 C 302.261719 149.355469 307.046875 154.125 311.832031 158.910156 C 316.601562 163.691406 321.382812 178.03125 330.9375 178.03125 C 332.527344 178.03125 333.96875 177.597656 335.292969 176.9375 C 329.84375 100.101562 265.808594 39.441406 187.582031 39.441406 " fill-opacity="1" fill-rule="nonzero"/><g clip-path="url(#6199fd7a02)"><path fill="#000000" d="M 207.003906 159.074219 L 206.984375 159.074219 C 207.003906 159.074219 207.003906 159.074219 207.003906 159.074219 Z M 186.488281 330.9375 C 186.871094 330.9375 187.234375 330.9375 187.597656 330.9375 C 217.234375 330.9375 245.578125 321.996094 269.796875 304.976562 L 273.207031 292.246094 C 275.542969 283.539062 270.660156 274.5 262.097656 271.667969 L 230.195312 261.121094 L 229.351562 260.210938 C 227.828125 258.539062 227.167969 256.222656 227.613281 254.003906 C 228.042969 251.769531 229.535156 249.863281 231.570312 248.90625 C 233.589844 247.945312 240.148438 244.5 240.148438 240.148438 C 240.148438 236.933594 236.867188 232.25 231.386719 227.648438 C 227.695312 224.550781 225.992188 219.652344 226.953125 214.867188 L 230.363281 197.8125 L 227.628906 192.367188 L 219.054688 192.367188 L 201.917969 175.230469 L 201.917969 160.761719 L 201.042969 161.042969 C 197.78125 162.136719 194.253906 161.457031 191.636719 159.207031 C 189.039062 156.972656 187.8125 153.609375 188.394531 150.25 C 190.082031 140.367188 194.023438 133.628906 199.785156 130.746094 C 210.082031 125.613281 226.984375 132.816406 231.6875 135.019531 L 236.519531 135.167969 L 250.34375 138.609375 C 251.785156 138.976562 253.257812 138.496094 254.203125 137.386719 C 272.164062 115.914062 276.054688 115.914062 278.375 115.914062 C 283.125 115.914062 286.734375 117.238281 289.085938 119.855469 C 292.859375 124.058594 292.230469 129.9375 291.667969 135.117188 C 291.386719 137.734375 291.089844 140.414062 291.453125 142.21875 C 291.734375 143.609375 292.925781 144.570312 294.332031 144.570312 L 304.25 144.570312 L 315.210938 155.53125 C 317.03125 157.367188 318.652344 159.953125 320.359375 162.699219 C 323.089844 167.101562 326.46875 172.5 330.175781 173.179688 C 322.90625 100.550781 261.054688 44.226562 187.582031 44.226562 C 174.933594 44.226562 162.386719 45.882812 150.214844 49.160156 C 157.234375 49.574219 167.566406 50.898438 171.839844 55.1875 C 176.902344 60.238281 186.375 74.425781 186.769531 75.019531 L 188.3125 77.324219 L 180.332031 93.296875 L 151.492188 81.660156 C 146.476562 78.332031 139.902344 75.699219 138.214844 76.410156 L 136.824219 77.800781 L 135.019531 77.671875 L 122.683594 77.671875 C 116.824219 83.730469 111.574219 90.335938 111.097656 92.339844 C 111.128906 94.492188 113.679688 100.75 115.398438 104.207031 L 115.914062 105.21875 L 115.914062 106.34375 C 115.914062 112.964844 113.398438 120.679688 106.34375 120.679688 C 103.363281 120.929688 92.007812 128.5625 92.007812 135.019531 C 92.007812 143.28125 96.246094 151.921875 96.296875 152.003906 L 97.355469 154.125 L 92.570312 163.691406 L 96.542969 171.738281 L 103.035156 191.207031 L 77.671875 196.273438 L 77.671875 209.503906 L 94.589844 226.40625 L 109.953125 231.539062 L 120.53125 258.09375 C 122.683594 266.683594 126.476562 277.398438 128.84375 279.78125 L 135.019531 285.957031 C 135.066406 283.703125 136.242188 281.667969 138.164062 280.492188 C 140.117188 279.265625 142.519531 279.167969 144.585938 280.210938 L 163.691406 289.761719 L 163.691406 301.136719 L 167.253906 308.257812 L 188.640625 318.96875 L 187.335938 322.890625 C 186.921875 324.148438 186.109375 327.726562 186.488281 330.9375 Z M 187.597656 340.488281 C 186.671875 340.488281 185.726562 340.488281 184.800781 340.472656 L 183.3125 340.441406 L 178.046875 336.664062 L 177.597656 335.058594 C 176.492188 331.054688 176.789062 326.914062 177.285156 323.96875 L 160.132812 315.390625 L 154.140625 303.390625 L 154.140625 295.65625 L 144.570312 290.890625 L 144.570312 291.46875 C 144.570312 294.433594 142.816406 297.066406 140.085938 298.191406 C 137.371094 299.316406 134.257812 298.703125 132.171875 296.617188 L 122.089844 286.535156 C 116.789062 281.238281 112.371094 264.78125 111.34375 260.742188 L 102.734375 239.203125 L 89.425781 234.765625 L 68.117188 213.457031 L 68.117188 188.445312 L 90.550781 183.957031 L 87.585938 175.082031 L 81.890625 163.691406 L 86.726562 154.023438 C 85.1875 150.367188 82.453125 142.765625 82.453125 135.019531 C 82.453125 123.113281 97.71875 111.957031 105.5 111.179688 C 105.863281 110.382812 106.179688 108.828125 106.3125 107.355469 C 104.835938 104.257812 101.578125 96.859375 101.578125 92.007812 C 101.578125 86.429688 110.117188 76.691406 117.304688 69.523438 L 118.710938 68.117188 L 133.445312 68.117188 C 140.582031 63.980469 152.152344 70.667969 156.359375 73.414062 L 175.710938 81.164062 L 177.285156 78.035156 C 173.972656 73.214844 168.164062 65.003906 165.082031 61.941406 C 163.296875 60.152344 153.710938 58.566406 144.570312 58.566406 L 141.128906 58.566406 L 136.109375 43.5 L 140.714844 42.027344 C 155.863281 37.140625 171.640625 34.675781 187.582031 34.675781 C 267.429688 34.675781 334.414062 97.007812 340.058594 176.605469 L 340.292969 179.785156 L 337.425781 181.207031 C 335.324219 182.269531 333.140625 182.796875 330.9375 182.796875 C 321.617188 182.796875 316.203125 174.105469 312.246094 167.75 C 310.839844 165.480469 309.515625 163.34375 308.453125 162.285156 L 300.292969 154.125 L 294.332031 154.125 C 288.40625 154.125 283.257812 149.917969 282.082031 144.109375 C 281.4375 140.863281 281.800781 137.417969 282.164062 134.089844 C 282.460938 131.375 282.894531 127.269531 281.984375 126.246094 C 281.667969 125.894531 280.707031 125.53125 278.953125 125.464844 C 277.179688 126.460938 271.867188 131.160156 261.535156 143.511719 C 258.226562 147.46875 253.058594 149.15625 248.027344 147.882812 L 234.78125 144.570312 L 229.46875 144.570312 L 228.457031 144.074219 C 221.390625 140.566406 209.15625 136.757812 204.054688 139.289062 C 201.207031 140.714844 198.941406 145.300781 197.8125 151.855469 L 203.972656 150 C 205.695312 149.40625 207.613281 149.71875 209.105469 150.78125 C 210.59375 151.855469 211.472656 153.578125 211.472656 155.414062 L 211.472656 171.273438 L 223.011719 182.796875 L 233.539062 182.796875 L 240.378906 196.472656 L 236.320312 216.753906 C 236.058594 218.09375 236.519531 219.484375 237.53125 220.328125 C 243.078125 225 249.699219 232.214844 249.699219 240.148438 C 249.699219 245.609375 246.601562 250.609375 240.859375 254.582031 L 265.113281 262.597656 C 278.472656 267.015625 286.089844 281.121094 282.445312 294.730469 L 278.140625 310.773438 L 276.765625 311.765625 C 250.59375 330.589844 219.816406 340.488281 187.597656 340.488281 " fill-opacity="1" fill-rule="nonzero"/></g><path fill="#000000" d="M 148.609375 259.566406 L 144.605469 256.96875 C 142.121094 255.359375 139.421875 254.035156 136.609375 253.011719 L 135.664062 252.679688 C 132.121094 251.421875 127.785156 249.863281 125.035156 246.386719 L 110.945312 248.210938 L 109.722656 238.722656 L 124.753906 236.769531 C 127.785156 236.40625 130.78125 237.761719 132.386719 240.261719 C 133.296875 241.6875 136.394531 242.796875 138.875 243.671875 L 139.871094 244.035156 C 143.363281 245.296875 146.691406 246.949219 149.785156 248.953125 L 153.808594 251.535156 L 148.609375 259.566406 " fill-opacity="1" fill-rule="nonzero"/><path fill="#000000" d="M 233.292969 113.84375 L 231.089844 109.605469 C 228.625 104.886719 225.261719 99.441406 221.089844 99.191406 L 220.261719 99.160156 C 218.558594 99.144531 215.710938 99.109375 213.394531 97.023438 C 211.71875 95.5 211.109375 93.628906 210.710938 92.386719 C 209.203125 87.71875 207.085938 83.332031 204.402344 79.292969 C 203.625 78.132812 203.292969 77.835938 203.160156 77.769531 C 202.863281 77.703125 201.671875 77.851562 201.273438 77.917969 C 196.058594 78.664062 190.84375 79.839844 185.761719 81.378906 L 181.191406 82.753906 L 178.425781 73.613281 L 182.980469 72.222656 C 188.527344 70.550781 194.222656 69.277344 199.917969 68.449219 C 201.96875 68.152344 204.371094 67.933594 206.820312 68.945312 C 209.800781 70.171875 211.523438 72.753906 212.351562 73.996094 C 215.527344 78.761719 218.027344 83.945312 219.78125 89.40625 C 219.816406 89.472656 219.832031 89.539062 219.847656 89.605469 C 220.542969 89.640625 221.089844 89.625 221.671875 89.65625 C 231.769531 90.234375 237.234375 100.714844 239.566406 105.183594 L 241.769531 109.421875 L 233.292969 113.84375 " fill-opacity="1" fill-rule="nonzero"/><path fill="#000000" d="M 137.152344 174.121094 C 136.988281 174.121094 136.804688 174.121094 136.640625 174.105469 C 134.488281 173.972656 132.800781 173.011719 131.425781 172.085938 C 126.476562 168.726562 122.121094 164.304688 118.859375 159.289062 L 118.578125 158.859375 C 118.148438 158.195312 117.503906 157.1875 117.171875 156.988281 C 116.691406 156.722656 114.835938 156.9375 114.140625 157.039062 L 88.628906 160.132812 L 87.472656 150.628906 L 113 147.535156 C 115.269531 147.269531 118.695312 146.855469 121.90625 148.695312 C 124.257812 150.035156 125.613281 152.136719 126.609375 153.675781 C 129.4375 158.015625 132.882812 161.507812 136.789062 164.171875 C 136.957031 164.289062 137.089844 164.371094 137.1875 164.4375 C 137.46875 164.273438 137.832031 164.023438 138.113281 163.84375 L 138.84375 163.378906 C 145.085938 159.4375 153.5625 159.304688 159.933594 163.03125 L 164.058594 165.449219 L 159.238281 173.691406 L 155.117188 171.273438 C 151.789062 169.339844 147.1875 169.421875 143.941406 171.457031 L 143.363281 171.839844 C 141.957031 172.75 139.886719 174.121094 137.152344 174.121094 " fill-opacity="1" fill-rule="nonzero"/><path fill="#0a6d09" d="M 87.273438 135.613281 C 87.273438 135.414062 87.238281 135.21875 87.238281 135.019531 C 87.238281 125.464844 101.578125 115.914062 106.34375 115.914062 C 111.128906 115.914062 111.128906 106.34375 111.128906 106.34375 C 111.128906 106.34375 106.34375 96.792969 106.34375 92.007812 C 106.34375 87.238281 120.679688 72.902344 120.679688 72.902344 L 135.019531 72.902344 C 139.804688 68.117188 154.140625 77.671875 154.140625 77.671875 L 158.511719 79.425781 C 167.78125 91.128906 175.976562 103.710938 182.898438 116.957031 C 178.03125 130.234375 167.5 124.074219 163.691406 130.234375 L 164.917969 138.792969 C 162.5 142.699219 157.714844 144.472656 153.34375 143.046875 C 146.890625 140.929688 139.605469 136.871094 135.019531 135.019531 C 121.410156 129.488281 108.910156 130.699219 95.863281 133.5625 L 87.273438 135.613281 " fill-opacity="1" fill-rule="nonzero"/><path fill="#000000" d="M 82.605469 140.515625 L 82.453125 135.019531 C 82.453125 123.113281 97.71875 111.957031 105.5 111.179688 C 105.863281 110.382812 106.179688 108.828125 106.3125 107.355469 C 104.835938 104.257812 101.578125 96.859375 101.578125 92.007812 C 101.578125 86.429688 110.117188 76.691406 117.304688 69.523438 L 118.710938 68.117188 L 133.460938 68.117188 C 134.769531 67.371094 136.523438 66.777344 138.84375 66.777344 C 145.582031 66.777344 154.15625 71.992188 156.359375 73.414062 L 161.457031 75.453125 L 162.253906 76.445312 C 163.128906 77.570312 164.007812 78.679688 164.867188 79.824219 L 167.765625 83.613281 L 160.167969 89.40625 L 157.269531 85.617188 C 156.707031 84.871094 156.128906 84.125 155.546875 83.382812 L 151.492188 81.660156 C 148.164062 79.441406 142.039062 76.34375 138.84375 76.34375 C 138.394531 76.34375 138.214844 76.410156 138.214844 76.410156 L 136.804688 77.800781 L 135.019531 77.671875 L 122.683594 77.671875 C 116.824219 83.730469 111.574219 90.335938 111.097656 92.339844 C 111.128906 94.492188 113.679688 100.75 115.398438 104.207031 L 115.914062 105.21875 L 115.914062 106.34375 C 115.914062 112.964844 113.398438 120.679688 106.34375 120.679688 C 103.363281 120.929688 92.007812 128.5625 92.007812 135.019531 L 92.15625 140.285156 L 82.605469 140.515625 " fill-opacity="1" fill-rule="nonzero"/><path fill="#b5a069" d="M 176.027344 255.890625 C 174.984375 258.390625 173.757812 261.105469 171.324219 262.3125 C 170 262.992188 168.460938 263.109375 166.972656 263.160156 C 163.164062 263.257812 159.339844 262.925781 155.613281 262.148438 C 149.453125 260.875 143.296875 258.425781 137.105469 259.433594 C 129.457031 260.691406 124.242188 266.570312 120.382812 273.605469 C 121.90625 277.628906 123.679688 281.371094 125.464844 283.15625 L 135.546875 293.238281 C 137.121094 294.8125 139.804688 293.6875 139.804688 291.46875 L 139.804688 286.121094 C 139.804688 284.746094 141.226562 283.871094 142.453125 284.480469 L 158.910156 292.710938 L 158.910156 302.261719 L 163.691406 311.832031 L 182.796875 321.382812 C 182.796875 321.382812 180.597656 328.023438 182.203125 333.769531 C 183.179688 334.464844 183.90625 334.992188 184.882812 335.6875 C 192.914062 335.835938 200.777344 335.308594 208.476562 334.214844 C 209.765625 331.1875 211.40625 328.289062 213.359375 325.621094 C 218.027344 319.265625 224.519531 313.917969 226.902344 306.417969 C 228.605469 301.054688 227.996094 295.261719 228.507812 289.664062 C 229.566406 278.375 235.726562 267.777344 244.699219 260.890625 L 232.878906 256.984375 C 231.785156 255.792969 232.167969 253.921875 233.625 253.226562 C 237.828125 251.238281 244.929688 246.867188 244.929688 240.148438 C 244.929688 233.855469 238.707031 227.5625 234.46875 223.988281 C 232.082031 222 231.023438 218.855469 231.636719 215.808594 L 232.183594 213.027344 C 220.429688 213.492188 208.410156 214.765625 198.757812 221.289062 C 187.152344 229.121094 181.375 242.929688 176.027344 255.890625 " fill-opacity="1" fill-rule="nonzero"/><path fill="#0a6d09" d="M 237.546875 140.347656 L 249.1875 143.246094 C 252.398438 144.058594 255.757812 142.980469 257.878906 140.449219 C 263.589844 133.613281 274.863281 120.679688 278.375 120.679688 C 292.710938 120.679688 285.0625 134.738281 286.765625 143.164062 C 287.511719 146.773438 290.65625 149.355469 294.332031 149.355469 L 302.261719 149.355469 C 302.261719 149.355469 307.046875 154.125 311.832031 158.910156 C 316.601562 163.691406 321.382812 178.03125 330.9375 178.03125 C 332.527344 178.03125 333.96875 177.597656 335.292969 176.9375 C 331.929688 129.621094 306.351562 88.464844 268.921875 63.8125 C 268.871094 77.902344 267.414062 92.058594 260.046875 103.84375 C 255.078125 111.792969 247.746094 118.066406 242.894531 126.113281 L 237.546875 140.347656 " fill-opacity="1" fill-rule="nonzero"/><g clip-path="url(#28b54d22e2)"><path fill="#000000" d="M 330.9375 182.796875 C 321.617188 182.796875 316.203125 174.105469 312.246094 167.75 C 310.839844 165.480469 309.515625 163.34375 308.453125 162.285156 L 300.292969 154.125 L 294.332031 154.125 C 288.40625 154.125 283.257812 149.917969 282.082031 144.109375 C 281.851562 142.914062 281.734375 141.609375 281.734375 140.132812 C 281.734375 138.113281 281.949219 136.0625 282.164062 134.089844 C 282.347656 132.402344 282.546875 130.746094 282.546875 129.191406 C 282.546875 126.527344 282.546875 125.546875 278.953125 125.464844 C 277.199219 126.441406 271.882812 131.144531 261.535156 143.511719 C 258.292969 147.402344 252.894531 149.105469 248.027344 147.882812 L 231.753906 143.808594 L 234.070312 134.539062 L 250.34375 138.609375 C 251.769531 138.976562 253.292969 138.496094 254.203125 137.386719 C 272.164062 115.914062 276.054688 115.914062 278.375 115.914062 C 287.230469 115.914062 292.097656 120.632812 292.097656 129.191406 C 292.097656 131.160156 291.882812 133.179688 291.667969 135.117188 C 291.484375 136.824219 291.285156 138.527344 291.285156 140.132812 C 291.285156 140.863281 291.320312 141.574219 291.453125 142.21875 C 291.734375 143.609375 292.925781 144.570312 294.332031 144.570312 L 304.25 144.570312 L 315.210938 155.53125 C 317.03125 157.367188 318.652344 159.953125 320.359375 162.699219 C 323.089844 167.101562 326.46875 172.515625 330.175781 173.179688 C 325.96875 130.828125 303.453125 93 267.941406 68.894531 L 263.988281 66.214844 L 269.351562 58.316406 L 273.308594 61 C 312.394531 87.539062 336.730469 129.671875 340.058594 176.605469 L 340.292969 179.785156 L 337.425781 181.207031 C 335.324219 182.269531 333.140625 182.796875 330.9375 182.796875 " fill-opacity="1" fill-rule="nonzero"/></g><g clip-path="url(#b5f087580d)"><path fill="#000000" d="M 138.925781 289.863281 L 138.976562 289.863281 Z M 187.449219 340.488281 C 186.554688 340.488281 185.679688 340.488281 184.800781 340.472656 L 183.3125 340.441406 L 178.046875 336.683594 L 177.597656 335.058594 C 176.492188 331.054688 176.789062 326.914062 177.285156 323.96875 L 160.132812 315.390625 L 154.140625 303.390625 L 154.140625 295.65625 L 144.570312 290.890625 L 144.570312 291.46875 C 144.570312 294.433594 142.816406 297.066406 140.085938 298.191406 C 137.371094 299.316406 134.257812 298.703125 132.171875 296.617188 L 122.089844 286.535156 C 120.003906 284.449219 118.050781 280.890625 115.914062 275.308594 L 114.207031 270.839844 L 123.148438 267.445312 L 124.851562 271.898438 C 127.054688 277.710938 128.460938 279.398438 128.84375 279.765625 L 135.019531 285.957031 C 135.066406 283.703125 136.242188 281.667969 138.164062 280.492188 C 140.117188 279.265625 142.519531 279.167969 144.585938 280.210938 L 163.691406 289.761719 L 163.691406 301.136719 L 167.253906 308.257812 L 188.640625 318.96875 L 187.335938 322.890625 C 186.921875 324.148438 186.109375 327.726562 186.488281 330.9375 C 193.542969 331.085938 200.660156 330.492188 207.796875 329.480469 L 212.53125 328.816406 L 213.871094 338.289062 L 209.136719 338.949219 C 201.871094 339.976562 194.601562 340.488281 187.449219 340.488281 " fill-opacity="1" fill-rule="nonzero"/></g><path fill="#000000" d="M 247.730469 266.917969 L 230.195312 261.121094 L 229.351562 260.210938 C 227.828125 258.539062 227.167969 256.222656 227.613281 254.003906 C 228.042969 251.769531 229.535156 249.863281 231.570312 248.90625 C 233.589844 247.945312 240.148438 244.5 240.148438 240.148438 C 240.148438 236.933594 236.867188 232.25 231.386719 227.664062 C 227.695312 224.550781 225.992188 219.652344 226.953125 214.867188 L 228.441406 207.398438 L 237.8125 209.269531 L 236.320312 216.738281 C 236.058594 218.09375 236.519531 219.484375 237.53125 220.328125 C 243.078125 225 249.699219 232.214844 249.699219 240.148438 C 249.699219 245.609375 246.601562 250.609375 240.859375 254.582031 L 250.742188 257.84375 L 247.730469 266.917969 " fill-opacity="1" fill-rule="nonzero"/><path fill="#000000" d="M 178.03125 262.777344 L 175.480469 238.671875 C 172.914062 237.648438 168.527344 236.105469 166.472656 235.644531 L 161.804688 234.582031 L 163.925781 225.261719 L 168.578125 226.324219 C 178.90625 228.65625 184.320312 231.605469 184.703125 235.0625 L 187.53125 261.769531 L 178.03125 262.777344 " fill-opacity="1" fill-rule="nonzero"/><path fill="#000000" d="M 198.359375 272.992188 L 193.609375 254.402344 L 202.863281 252.035156 L 207.613281 270.609375 L 198.359375 272.992188 " fill-opacity="1" fill-rule="nonzero"/><g clip-path="url(#bac11df317)"><g clip-path="url(#3a8391d9c6)"><path fill="#1e1e1e" d="M 333.148438 178.800781 L 343.28125 178.800781 L 343.28125 188.625 L 333.148438 188.625 Z M 333.148438 178.800781 " fill-opacity="1" fill-rule="nonzero"/></g></g></svg>